<svg id="Layer_1" data-name="Layer 1" xmlns="http://www.w3.org/2000/svg" width="262" height="262" viewBox="0 0 262 262"><defs><style>.cls-1{fill:#f8f8f8;}.cls-2{fill:#141f31;}</style></defs><title>logo</title><rect class="cls-1" width="262" height="262"/><circle class="cls-2" cx="595.9754" cy="-219.0314" r="31.6197" transform="translate(210.2201 732.3242) rotate(-76.7175)"/><path class="cls-2" d="M595.9754-287.0559a68.0253,68.0253,0,0,0-68.0246,68.0245,67.51,67.51,0,0,0,9.9269,35.3728l-12.9106,9.683,10.2271,12.1224,10.4524-9.27,44.1549,71.271.0188.0375A5.4787,5.4787,0,0,0,594.5868-97a5.4258,5.4258,0,0,0,4.7476-2.8148l.0188-.0375,52.6181-80.5412A67.7486,67.7486,0,0,0,664-219.0314,68.0253,68.0253,0,0,0,595.9754-287.0559Zm0,117.8467a49.6125,49.6125,0,0,1-35.992-15.4065l3.8843-4.6913-5.592-7.1871-5.3293,2.5709a49.5426,49.5426,0,0,1-6.7931-25.1082,49.8337,49.8337,0,0,1,49.8221-49.8409,49.8378,49.8378,0,0,1,49.8409,49.8409A49.8338,49.8338,0,0,1,595.9754-169.2092Z" transform="translate(-462 321)"/></svg>